<svg width="46" height="46" viewBox="0 0 46 46" fill="none" xmlns="http://www.w3.org/2000/svg">
<rect x="0.5" y="0.223267" width="45" height="45" rx="22.5" fill="#DA2128"/>
<path d="M32.9802 21.1051L32.8742 20.6556H23.1036V24.7909H28.9414C28.3353 27.669 25.5228 29.184 23.2255 29.184C21.5539 29.184 19.7919 28.4809 18.6256 27.3508C18.0103 26.745 17.5205 26.0238 17.1843 25.2284C16.8481 24.4331 16.672 23.5792 16.6662 22.7158C16.6662 20.9739 17.4491 19.2315 18.5881 18.0855C19.7272 16.9394 21.4475 16.2981 23.158 16.2981C25.1169 16.2981 26.5208 17.3383 27.0458 17.8126L29.9844 14.8895C29.1223 14.132 26.7542 12.2233 23.0633 12.2233C20.2156 12.2233 17.4852 13.314 15.4892 15.3034C13.5195 17.2623 12.5 20.095 12.5 22.7233C12.5 25.3515 13.4647 28.0426 15.3734 30.017C17.413 32.1226 20.3014 33.2233 23.2756 33.2233C25.9817 33.2233 28.5467 32.163 30.3748 30.2392C32.172 28.3455 33.1016 25.7251 33.1016 22.9783C33.1016 21.8219 32.9853 21.1351 32.9802 21.1051Z" fill="#FCFFFC"/>
</svg>
