<svg width="20" height="21" viewBox="0 0 20 21" fill="none" xmlns="http://www.w3.org/2000/svg">
<rect y="0.666504" width="20" height="20" rx="4" fill="#FCFFFC"/>
<path d="M7.44132 9.6665C7.07484 9.6665 6.7166 9.55103 6.41188 9.33471C6.10717 9.11838 5.86967 8.8109 5.72943 8.45116C5.58918 8.09142 5.55249 7.69557 5.62398 7.31367C5.69548 6.93177 5.87195 6.58097 6.13109 6.30564C6.39023 6.0303 6.72039 5.8428 7.07983 5.76683C7.43926 5.69087 7.81183 5.72986 8.15041 5.87887C8.48899 6.02788 8.77838 6.28022 8.98198 6.60397C9.18558 6.92773 9.29426 7.30837 9.29426 7.69775C9.29373 8.21972 9.09834 8.72016 8.75096 9.08925C8.40358 9.45834 7.93259 9.66594 7.44132 9.6665Z" fill="#242424" fill-opacity="0.8"/>
<path d="M12.4706 9.6665C12.1041 9.6665 11.7459 9.55103 11.4412 9.33471C11.1365 9.11838 10.899 8.8109 10.7587 8.45116C10.6185 8.09142 10.5818 7.69557 10.6533 7.31367C10.7248 6.93177 10.9013 6.58097 11.1604 6.30564C11.4195 6.0303 11.7497 5.8428 12.1091 5.76683C12.4686 5.69087 12.8411 5.72986 13.1797 5.87887C13.5183 6.02788 13.8077 6.28022 14.0113 6.60397C14.2149 6.92773 14.3236 7.30837 14.3236 7.69775C14.323 8.21972 14.1276 8.72016 13.7803 9.08925C13.4329 9.45834 12.9619 9.66594 12.4706 9.6665Z" fill="#242424" fill-opacity="0.8"/>
<path d="M7.44132 15.0103C7.07484 15.0103 6.7166 14.8948 6.41188 14.6785C6.10717 14.4621 5.86967 14.1547 5.72943 13.7949C5.58918 13.4352 5.55249 13.0393 5.62398 12.6574C5.69548 12.2755 5.87195 11.9247 6.13109 11.6494C6.39023 11.3741 6.72039 11.1865 7.07983 11.1106C7.43926 11.0346 7.81183 11.0736 8.15041 11.2226C8.48899 11.3716 8.77838 11.624 8.98198 11.9477C9.18558 12.2715 9.29426 12.6521 9.29426 13.0415C9.29373 13.5635 9.09834 14.0639 8.75096 14.433C8.40358 14.8021 7.93259 15.0097 7.44132 15.0103Z" fill="#242424" fill-opacity="0.8"/>
<path d="M12.4706 15.0103C12.1041 15.0103 11.7459 14.8948 11.4412 14.6785C11.1365 14.4621 10.899 14.1547 10.7587 13.7949C10.6185 13.4352 10.5818 13.0393 10.6533 12.6574C10.7248 12.2755 10.9013 11.9247 11.1604 11.6494C11.4195 11.3741 11.7497 11.1865 12.1091 11.1106C12.4686 11.0346 12.8411 11.0736 13.1797 11.2226C13.5183 11.3716 13.8077 11.624 14.0113 11.9477C14.2149 12.2715 14.3236 12.6521 14.3236 13.0415C14.323 13.5635 14.1276 14.0639 13.7803 14.433C13.4329 14.8021 12.9619 15.0097 12.4706 15.0103Z" fill="#242424" fill-opacity="0.8"/>
</svg>
